<mxfile host="app.diagrams.net" agent="Mozilla/5.0 (Windows NT 10.0; Win64; x64) AppleWebKit/537.36 (KHTML, like Gecko) Chrome/131.0.0.0 Safari/537.36" version="26.0.6">
  <diagram name="Page-1" id="mjTT1x47Fcei4zEt5tH7">
    <mxGraphModel dx="867" dy="507" grid="0" gridSize="10" guides="1" tooltips="1" connect="1" arrows="1" fold="1" page="1" pageScale="1" pageWidth="850" pageHeight="1100" math="0" shadow="0">
      <root>
        <mxCell id="0" />
        <mxCell id="1" parent="0" />
        <mxCell id="pkoIFwFUGQ6euqZauWuU-1" value="" style="group" vertex="1" connectable="0" parent="1">
          <mxGeometry x="65" y="169" width="720" height="810" as="geometry" />
        </mxCell>
        <mxCell id="pkoIFwFUGQ6euqZauWuU-2" value=":BatteryPack" style="shape=umlLifeline;perimeter=lifelinePerimeter;whiteSpace=wrap;html=1;container=1;collapsible=0;recursiveResize=0;outlineConnect=0;rounded=1;shadow=0;comic=0;labelBackgroundColor=none;strokeWidth=1;fontFamily=Verdana;fontSize=12;align=center;" vertex="1" parent="pkoIFwFUGQ6euqZauWuU-1">
          <mxGeometry x="350" y="37.67" width="100" height="376.33" as="geometry" />
        </mxCell>
        <mxCell id="pkoIFwFUGQ6euqZauWuU-3" value="" style="html=1;points=[];perimeter=orthogonalPerimeter;rounded=0;shadow=0;comic=0;labelBackgroundColor=none;strokeWidth=1;fontFamily=Verdana;fontSize=12;align=center;" vertex="1" parent="pkoIFwFUGQ6euqZauWuU-2">
          <mxGeometry x="45" y="94.19" width="10" height="95.81" as="geometry" />
        </mxCell>
        <mxCell id="pkoIFwFUGQ6euqZauWuU-4" value="B1:Battery" style="shape=umlLifeline;perimeter=lifelinePerimeter;whiteSpace=wrap;html=1;container=1;collapsible=0;recursiveResize=0;outlineConnect=0;rounded=1;shadow=0;comic=0;labelBackgroundColor=none;strokeWidth=1;fontFamily=Verdana;fontSize=12;align=center;" vertex="1" parent="pkoIFwFUGQ6euqZauWuU-1">
          <mxGeometry x="120" y="37.67" width="100" height="371.33" as="geometry" />
        </mxCell>
        <mxCell id="pkoIFwFUGQ6euqZauWuU-5" value="" style="html=1;points=[];perimeter=orthogonalPerimeter;rounded=0;shadow=0;comic=0;labelBackgroundColor=none;strokeWidth=1;fontFamily=Verdana;fontSize=12;align=center;" vertex="1" parent="pkoIFwFUGQ6euqZauWuU-4">
          <mxGeometry x="45" y="90" width="10" height="100" as="geometry" />
        </mxCell>
        <mxCell id="pkoIFwFUGQ6euqZauWuU-6" value="B2:Battery" style="shape=umlLifeline;perimeter=lifelinePerimeter;whiteSpace=wrap;html=1;container=1;collapsible=0;recursiveResize=0;outlineConnect=0;rounded=1;shadow=0;comic=0;labelBackgroundColor=none;strokeWidth=1;fontFamily=Verdana;fontSize=12;align=center;" vertex="1" parent="pkoIFwFUGQ6euqZauWuU-1">
          <mxGeometry x="585" y="37.67" width="100" height="375.33" as="geometry" />
        </mxCell>
        <mxCell id="pkoIFwFUGQ6euqZauWuU-7" value="" style="html=1;points=[];perimeter=orthogonalPerimeter;rounded=0;shadow=0;comic=0;labelBackgroundColor=none;strokeWidth=1;fontFamily=Verdana;fontSize=12;align=center;" vertex="1" parent="pkoIFwFUGQ6euqZauWuU-6">
          <mxGeometry x="45" y="224.12" width="10" height="94.88" as="geometry" />
        </mxCell>
        <mxCell id="pkoIFwFUGQ6euqZauWuU-37" style="edgeStyle=orthogonalEdgeStyle;rounded=0;orthogonalLoop=1;jettySize=auto;html=1;entryX=0.826;entryY=0.041;entryDx=0;entryDy=0;entryPerimeter=0;exitX=-0.041;exitY=0.006;exitDx=0;exitDy=0;exitPerimeter=0;endArrow=block;endFill=1;" edge="1" parent="pkoIFwFUGQ6euqZauWuU-1" source="pkoIFwFUGQ6euqZauWuU-3" target="pkoIFwFUGQ6euqZauWuU-5">
          <mxGeometry relative="1" as="geometry">
            <Array as="points">
              <mxPoint x="285" y="133" />
            </Array>
          </mxGeometry>
        </mxCell>
        <mxCell id="pkoIFwFUGQ6euqZauWuU-38" value="getSoC()" style="edgeLabel;html=1;align=center;verticalAlign=middle;resizable=0;points=[];labelBackgroundColor=none;" vertex="1" connectable="0" parent="pkoIFwFUGQ6euqZauWuU-37">
          <mxGeometry x="-0.0229" relative="1" as="geometry">
            <mxPoint x="1" y="-9" as="offset" />
          </mxGeometry>
        </mxCell>
        <mxCell id="pkoIFwFUGQ6euqZauWuU-8" value="startSupplying" style="swimlane;whiteSpace=wrap;html=1;startSize=23;fillColor=default;" vertex="1" parent="pkoIFwFUGQ6euqZauWuU-1">
          <mxGeometry width="720" height="479" as="geometry" />
        </mxCell>
        <mxCell id="pkoIFwFUGQ6euqZauWuU-16" value="alt" style="shape=umlFrame;whiteSpace=wrap;html=1;pointerEvents=0;width=50;height=20;" vertex="1" parent="pkoIFwFUGQ6euqZauWuU-8">
          <mxGeometry x="75" y="161" width="600" height="289" as="geometry" />
        </mxCell>
        <mxCell id="pkoIFwFUGQ6euqZauWuU-39" style="edgeStyle=orthogonalEdgeStyle;rounded=0;orthogonalLoop=1;jettySize=auto;html=1;entryX=-0.056;entryY=0.338;entryDx=0;entryDy=0;entryPerimeter=0;endArrow=none;endFill=0;startArrow=block;startFill=1;" edge="1" parent="pkoIFwFUGQ6euqZauWuU-8">
          <mxGeometry relative="1" as="geometry">
            <mxPoint x="175.56" y="221.09232558139533" as="sourcePoint" />
            <Array as="points" />
            <mxPoint x="394.99999999999994" y="221.03139534883726" as="targetPoint" />
          </mxGeometry>
        </mxCell>
        <mxCell id="pkoIFwFUGQ6euqZauWuU-40" value="startSuppllying()" style="edgeLabel;html=1;align=center;verticalAlign=middle;resizable=0;points=[];labelBackgroundColor=none;" vertex="1" connectable="0" parent="pkoIFwFUGQ6euqZauWuU-39">
          <mxGeometry x="-0.0214" relative="1" as="geometry">
            <mxPoint y="-10" as="offset" />
          </mxGeometry>
        </mxCell>
        <mxCell id="pkoIFwFUGQ6euqZauWuU-49" value="alt" style="shape=umlFrame;whiteSpace=wrap;html=1;pointerEvents=0;width=47;height=20;" vertex="1" parent="pkoIFwFUGQ6euqZauWuU-8">
          <mxGeometry x="109" y="286" width="550" height="138" as="geometry" />
        </mxCell>
        <mxCell id="pkoIFwFUGQ6euqZauWuU-50" value="" style="endArrow=none;dashed=1;html=1;dashPattern=1 3;strokeWidth=2;rounded=0;strokeColor=#FFFFFF;exitX=-0.002;exitY=0.267;exitDx=0;exitDy=0;exitPerimeter=0;entryX=1.002;entryY=0.267;entryDx=0;entryDy=0;entryPerimeter=0;comic=0;" edge="1" parent="pkoIFwFUGQ6euqZauWuU-8">
          <mxGeometry width="50" height="50" relative="1" as="geometry">
            <mxPoint x="75.00000000000006" y="249.00300000000001" as="sourcePoint" />
            <mxPoint x="677.3999999999997" y="249.00300000000001" as="targetPoint" />
          </mxGeometry>
        </mxCell>
        <mxCell id="pkoIFwFUGQ6euqZauWuU-51" value="" style="endArrow=none;dashed=1;html=1;dashPattern=1 3;strokeWidth=2;rounded=0;strokeColor=#B3B3B3;exitX=-0.001;exitY=0.634;exitDx=0;exitDy=0;exitPerimeter=0;entryX=0.998;entryY=0.644;entryDx=0;entryDy=0;entryPerimeter=0;" edge="1" parent="pkoIFwFUGQ6euqZauWuU-8" source="pkoIFwFUGQ6euqZauWuU-49" target="pkoIFwFUGQ6euqZauWuU-49">
          <mxGeometry width="50" height="50" relative="1" as="geometry">
            <mxPoint x="84" y="248" as="sourcePoint" />
            <mxPoint x="686" y="248" as="targetPoint" />
          </mxGeometry>
        </mxCell>
        <mxCell id="pkoIFwFUGQ6euqZauWuU-52" value="B1.SoC &amp;gt; 0" style="text;html=1;align=center;verticalAlign=middle;whiteSpace=wrap;rounded=0;fillColor=default;" vertex="1" parent="pkoIFwFUGQ6euqZauWuU-8">
          <mxGeometry x="299" y="165" width="79" height="30" as="geometry" />
        </mxCell>
        <mxCell id="pkoIFwFUGQ6euqZauWuU-54" value="B2.SoC &amp;gt; 0" style="text;html=1;align=center;verticalAlign=middle;whiteSpace=wrap;rounded=0;strokeColor=#FFFFFF;comic=0;" vertex="1" parent="pkoIFwFUGQ6euqZauWuU-8">
          <mxGeometry x="303.5" y="290.5" width="70" height="30" as="geometry" />
        </mxCell>
        <mxCell id="pkoIFwFUGQ6euqZauWuU-57" value="no battery can supply" style="shape=note;whiteSpace=wrap;html=1;backgroundOutline=1;darkOpacity=0.05;" vertex="1" parent="pkoIFwFUGQ6euqZauWuU-8">
          <mxGeometry x="293" y="384" width="195" height="32" as="geometry" />
        </mxCell>
        <mxCell id="pkoIFwFUGQ6euqZauWuU-58" value="" style="endArrow=none;dashed=1;html=1;dashPattern=1 3;strokeWidth=2;rounded=0;strokeColor=#B3B3B3;exitX=-0.001;exitY=0.262;exitDx=0;exitDy=0;exitPerimeter=0;" edge="1" parent="pkoIFwFUGQ6euqZauWuU-8" source="pkoIFwFUGQ6euqZauWuU-16">
          <mxGeometry width="50" height="50" relative="1" as="geometry">
            <mxPoint x="72" y="238" as="sourcePoint" />
            <mxPoint x="677" y="238" as="targetPoint" />
          </mxGeometry>
        </mxCell>
        <mxCell id="pkoIFwFUGQ6euqZauWuU-45" value="&lt;b&gt;PowerSupplyingPart Realization Interaction Model&lt;/b&gt;" style="text;fontSize=16;verticalAlign=middle;strokeColor=none;fillColor=none;whiteSpace=wrap;html=1;" vertex="1" parent="1">
          <mxGeometry x="40" y="40" width="388" height="30" as="geometry" />
        </mxCell>
        <mxCell id="pkoIFwFUGQ6euqZauWuU-46" value="" style="dashed=0;shape=line;strokeWidth=2;noLabel=1;strokeColor=#0C8CF2;opacity=50;" vertex="1" parent="1">
          <mxGeometry x="40" y="65" width="385" height="10" as="geometry" />
        </mxCell>
        <mxCell id="pkoIFwFUGQ6euqZauWuU-47" value="" style="html=1;points=[];perimeter=orthogonalPerimeter;rounded=0;shadow=0;comic=0;labelBackgroundColor=none;strokeWidth=1;fontFamily=Verdana;fontSize=12;align=center;" vertex="1" parent="1">
          <mxGeometry x="460" y="430.86" width="10" height="95.81" as="geometry" />
        </mxCell>
        <mxCell id="pkoIFwFUGQ6euqZauWuU-41" style="edgeStyle=orthogonalEdgeStyle;rounded=0;orthogonalLoop=1;jettySize=auto;html=1;entryX=0.022;entryY=0.019;entryDx=0;entryDy=0;entryPerimeter=0;exitX=0.879;exitY=0.012;exitDx=0;exitDy=0;exitPerimeter=0;endArrow=block;endFill=1;" edge="1" parent="1" source="pkoIFwFUGQ6euqZauWuU-47" target="pkoIFwFUGQ6euqZauWuU-7">
          <mxGeometry relative="1" as="geometry" />
        </mxCell>
        <mxCell id="pkoIFwFUGQ6euqZauWuU-42" value="getSoC()" style="edgeLabel;html=1;align=center;verticalAlign=middle;resizable=0;points=[];labelBackgroundColor=none;" vertex="1" connectable="0" parent="pkoIFwFUGQ6euqZauWuU-41">
          <mxGeometry x="0.0107" y="1" relative="1" as="geometry">
            <mxPoint x="-19" y="-10" as="offset" />
          </mxGeometry>
        </mxCell>
        <mxCell id="pkoIFwFUGQ6euqZauWuU-43" style="rounded=0;orthogonalLoop=1;jettySize=auto;html=1;entryX=0.022;entryY=0.979;entryDx=0;entryDy=0;entryPerimeter=0;endArrow=block;endFill=1;exitX=0.91;exitY=0.96;exitDx=0;exitDy=0;exitPerimeter=0;" edge="1" parent="1" source="pkoIFwFUGQ6euqZauWuU-47" target="pkoIFwFUGQ6euqZauWuU-7">
          <mxGeometry relative="1" as="geometry" />
        </mxCell>
        <mxCell id="pkoIFwFUGQ6euqZauWuU-44" value="startSupplying()" style="edgeLabel;html=1;align=left;verticalAlign=middle;resizable=0;points=[];labelBackgroundColor=none;" vertex="1" connectable="0" parent="pkoIFwFUGQ6euqZauWuU-43">
          <mxGeometry x="0.025" y="1" relative="1" as="geometry">
            <mxPoint x="-111" y="-18" as="offset" />
          </mxGeometry>
        </mxCell>
      </root>
    </mxGraphModel>
  </diagram>
</mxfile>
